<?xml version="1.0" encoding="UTF-8"?>
<svg width="15px" height="15px" viewBox="0 0 15 15" version="1.1" xmlns="http://www.w3.org/2000/svg" xmlns:xlink="http://www.w3.org/1999/xlink">
    <!-- Generator: Sketch 49.3 (51167) - http://www.bohemiancoding.com/sketch -->
    <title>plus - FontAwesome</title>
    <desc>Created with Sketch.</desc>
    <defs></defs>
    <g id="Page-1" stroke="none" stroke-width="1" fill="none" fill-rule="evenodd">
        <g id="Dashboard" transform="translate(-1107.000000, -122.000000)" fill="#FFFFFF">
            <g id="Group-2" transform="translate(856.000000, 110.000000)">
                <g id="Group-3" transform="translate(230.000000, 0.000000)">
                    <g id="Group-6">
                        <path d="M35.142874,18.9642761 L35.142874,20.8928499 C35.142874,21.4252166 34.7109538,21.8571367 34.1785871,21.8571367 L30.0000107,21.8571367 L30.0000107,26.0357131 C30.0000107,26.5680798 29.5680906,27 29.0357239,27 L27.1071501,27 C26.5747834,27 26.1428633,26.5680798 26.1428633,26.0357131 L26.1428633,21.8571367 L21.9642869,21.8571367 C21.4319202,21.8571367 21,21.4252166 21,20.8928499 L21,18.9642761 C21,18.4319094 21.4319202,17.9999893 21.9642869,17.9999893 L26.1428633,17.9999893 L26.1428633,13.8214129 C26.1428633,13.2890462 26.5747834,12.857126 27.1071501,12.857126 L29.0357239,12.857126 C29.5680906,12.857126 30.0000107,13.2890462 30.0000107,13.8214129 L30.0000107,17.9999893 L34.1785871,17.9999893 C34.7109538,17.9999893 35.142874,18.4319094 35.142874,18.9642761 Z" id="plus---FontAwesome"></path>
                    </g>
                </g>
            </g>
        </g>
    </g>
</svg>