<?xml version="1.0" encoding="UTF-8"?>
<svg width="7px" height="12px" viewBox="0 0 7 12" version="1.1" xmlns="http://www.w3.org/2000/svg" xmlns:xlink="http://www.w3.org/1999/xlink">
    <!-- Generator: Sketch 49.3 (51167) - http://www.bohemiancoding.com/sketch -->
    <title>angle-right - FontAwesome</title>
    <desc>Created with Sketch.</desc>
    <defs></defs>
    <g id="Page-1" stroke="none" stroke-width="1" fill="none" fill-rule="evenodd">
        <g id="Detalhe" transform="translate(-542.000000, -342.000000)" fill="#999999">
            <g id="Group-7" transform="translate(300.000000, 187.000000)">
                <g id="Group-5-Copy-3" transform="translate(30.000000, 150.000000)">
                    <path d="M218.640633,10.5714209 C218.640633,10.6607067 218.59599,10.7611533 218.529026,10.8281176 L213.328127,16.0290167 C213.261162,16.0959811 213.160716,16.140624 213.07143,16.140624 C212.982144,16.140624 212.881697,16.0959811 212.814733,16.0290167 L212.256697,15.4709803 C212.189732,15.404016 212.145089,15.3147301 212.145089,15.2142836 C212.145089,15.1249978 212.189732,15.0245512 212.256697,14.9575869 L216.642863,10.5714209 L212.256697,6.18525496 C212.189732,6.1182906 212.145089,6.01784405 212.145089,5.92855823 C212.145089,5.83927241 212.189732,5.73882586 212.256697,5.6718615 L212.814733,5.11382512 C212.881697,5.04686075 212.982144,5.00221784 213.07143,5.00221784 C213.160716,5.00221784 213.261162,5.04686075 213.328127,5.11382512 L218.529026,10.3147242 C218.59599,10.3816885 218.640633,10.4821351 218.640633,10.5714209 Z" id="angle-right---FontAwesome"></path>
                </g>
            </g>
        </g>
    </g>
</svg>