<?xml version="1.0" encoding="UTF-8"?>
<svg width="11px" height="12px" viewBox="0 0 11 12" version="1.1" xmlns="http://www.w3.org/2000/svg" xmlns:xlink="http://www.w3.org/1999/xlink">
    <!-- Generator: Sketch 49.3 (51167) - http://www.bohemiancoding.com/sketch -->
    <title>angle-double-right - FontAwesome</title>
    <desc>Created with Sketch.</desc>
    <defs></defs>
    <g id="Page-1" stroke="none" stroke-width="1" fill="none" fill-rule="evenodd">
        <g id="Dashboard" transform="translate(-1098.000000, -212.000000)" fill="#999999">
            <g id="Group-5" transform="translate(300.000000, 187.000000)">
                <path d="M804.640633,30.5714209 C804.640633,30.6607067 804.59599,30.7611533 804.529026,30.8281176 L799.328127,36.0290167 C799.261162,36.0959811 799.160716,36.140624 799.07143,36.140624 C798.982144,36.140624 798.881697,36.0959811 798.814733,36.0290167 L798.256697,35.4709803 C798.189732,35.404016 798.145089,35.3035694 798.145089,35.2142836 C798.145089,35.1249978 798.189732,35.0245512 798.256697,34.9575869 L802.642863,30.5714209 L798.256697,26.185255 C798.189732,26.1182906 798.145089,26.0178441 798.145089,25.9285582 C798.145089,25.8392724 798.189732,25.7388259 798.256697,25.6718615 L798.814733,25.1138251 C798.881697,25.0468608 798.982144,25.0022178 799.07143,25.0022178 C799.160716,25.0022178 799.261162,25.0468608 799.328127,25.1138251 L804.529026,30.3147242 C804.59599,30.3816885 804.640633,30.4821351 804.640633,30.5714209 Z M808.926352,30.5714209 C808.926352,30.6607067 808.881709,30.7611533 808.814745,30.8281176 L803.613846,36.0290167 C803.546882,36.0959811 803.446435,36.140624 803.357149,36.140624 C803.267863,36.140624 803.167417,36.0959811 803.100453,36.0290167 L802.542416,35.4709803 C802.475452,35.404016 802.430809,35.3035694 802.430809,35.2142836 C802.430809,35.1249978 802.475452,35.0245512 802.542416,34.9575869 L806.928582,30.5714209 L802.542416,26.185255 C802.475452,26.1182906 802.430809,26.0178441 802.430809,25.9285582 C802.430809,25.8392724 802.475452,25.7388259 802.542416,25.6718615 L803.100453,25.1138251 C803.167417,25.0468608 803.267863,25.0022178 803.357149,25.0022178 C803.446435,25.0022178 803.546882,25.0468608 803.613846,25.1138251 L808.814745,30.3147242 C808.881709,30.3816885 808.926352,30.4821351 808.926352,30.5714209 Z" id="angle-double-right---FontAwesome"></path>
            </g>
        </g>
    </g>
</svg>