<?xml version="1.0" encoding="UTF-8"?>
<svg width="18px" height="15px" viewBox="0 0 18 15" version="1.1" xmlns="http://www.w3.org/2000/svg" xmlns:xlink="http://www.w3.org/1999/xlink">
    <!-- Generator: Sketch 49.3 (51167) - http://www.bohemiancoding.com/sketch -->
    <title>sign-out - FontAwesome</title>
    <desc>Created with Sketch.</desc>
    <defs></defs>
    <g id="Page-1" stroke="none" stroke-width="1" fill="none" fill-rule="evenodd">
        <g id="Dashboard" transform="translate(-1103.000000, -32.000000)" fill="#FFFFFF">
            <g id="Group-10">
                <g id="Group-9" transform="translate(1083.000000, 20.000000)">
                    <path d="M27.1428657,25.9285702 C27.1428657,26.2410705 27.2879551,27 26.7857224,27 L23.2142895,27 C21.4397339,27 20,25.5602661 20,23.7857105 L20,15.9285582 C20,14.1540025 21.4397339,12.7142687 23.2142895,12.7142687 L26.7857224,12.7142687 C26.9754547,12.7142687 27.1428657,12.8816796 27.1428657,13.071412 C27.1428657,13.3839123 27.2879551,14.1428418 26.7857224,14.1428418 L23.2142895,14.1428418 C22.2321455,14.1428418 21.4285731,14.9464142 21.4285731,15.9285582 L21.4285731,23.7857105 C21.4285731,24.7678545 22.2321455,25.5714269 23.2142895,25.5714269 L26.4285791,25.5714269 C26.7075973,25.5714269 27.1428657,25.5156232 27.1428657,25.9285702 Z M37.5000209,19.8571343 C37.5000209,20.0468667 37.4218958,20.2254384 37.287967,20.3593671 L31.2165312,26.4308029 C31.0826025,26.5647316 30.9040309,26.6428567 30.7142985,26.6428567 C30.323673,26.6428567 30.0000119,26.3191956 30.0000119,25.9285702 L30.0000119,22.7142806 L25.000006,22.7142806 C24.6093805,22.7142806 24.2857194,22.3906195 24.2857194,21.999994 L24.2857194,17.7142746 C24.2857194,17.3236492 24.6093805,16.9999881 25.000006,16.9999881 L30.0000119,16.9999881 L30.0000119,13.7856985 C30.0000119,13.3950731 30.323673,13.071412 30.7142985,13.071412 C30.9040309,13.071412 31.0826025,13.1495371 31.2165312,13.2834658 L37.287967,19.3549016 C37.4218958,19.4888303 37.5000209,19.667402 37.5000209,19.8571343 Z" id="sign-out---FontAwesome"></path>
                </g>
            </g>
        </g>
    </g>
</svg>